<svg width="112" height="112" viewBox="0 0 112 112" fill="none" xmlns="http://www.w3.org/2000/svg">
<path fill-rule="evenodd" clip-rule="evenodd" d="M102.385 21.1923C102.385 32.3442 93.3442 41.3846 82.1923 41.3846C71.0404 41.3846 62 32.3442 62 21.1923C62 10.0404 71.0404 1 82.1923 1C93.3442 1 102.385 10.0404 102.385 21.1923ZM96.0946 21.1923C96.0946 28.8703 89.8703 35.0946 82.1923 35.0946C74.5143 35.0946 68.29 28.8703 68.29 21.1923C68.29 13.5143 74.5143 7.29 82.1923 7.29C89.8703 7.29 96.0946 13.5143 96.0946 21.1923Z" fill="white"/>
<path fill-rule="evenodd" clip-rule="evenodd" d="M51.0769 40.0385C51.0769 53.3145 40.3145 64.0769 27.0385 64.0769C13.7624 64.0769 3 53.3145 3 40.0385C3 26.7624 13.7624 16 27.0385 16C40.3145 16 51.0769 26.7624 51.0769 40.0385ZM44.7869 40.0385C44.7869 49.8407 36.8407 57.7869 27.0385 57.7869C17.2363 57.7869 9.29 49.8407 9.29 40.0385C9.29 30.2363 17.2363 22.29 27.0385 22.29C36.8407 22.29 44.7869 30.2363 44.7869 40.0385Z" fill="white"/>
<path fill-rule="evenodd" clip-rule="evenodd" d="M77.7692 110.538C94.7626 110.538 108.538 96.7626 108.538 79.7692C108.538 62.7759 94.7626 49 77.7692 49C60.7759 49 47 62.7759 47 79.7692C47 96.7626 60.7759 110.538 77.7692 110.538ZM77.7692 104.248C91.2887 104.248 102.248 93.2887 102.248 79.7692C102.248 66.2497 91.2887 55.29 77.7692 55.29C64.2497 55.29 53.29 66.2497 53.29 79.7692C53.29 93.2887 64.2497 104.248 77.7692 104.248Z" fill="white"/>
<path d="M58 11C59.0847 11 60.1601 11.0402 61.2247 11.1191C60.3045 13.0503 59.6458 15.1299 59.294 17.3124C58.8645 17.2975 58.4331 17.29 58 17.29C52.96 17.29 48.1573 18.3057 43.7853 20.1434C41.8969 18.5455 39.7775 17.2121 37.4842 16.2004C43.5816 12.884 50.5708 11 58 11Z" fill="white"/>
<path d="M16.0758 63.6005C19.7931 79.9011 32.7728 92.6762 49.1847 96.0956C47.9032 93.8063 46.8867 91.3488 46.1765 88.7644C35.3801 85.0936 26.8431 76.5348 23.2022 65.7246C20.6923 65.3573 18.299 64.6314 16.0758 63.6005Z" fill="white"/>
<path d="M101 54C101 54.7642 100.98 55.5237 100.941 56.2781C99.0412 54.4408 96.9216 52.8295 94.6254 51.4877C94.3889 47.9887 93.6621 44.6241 92.5132 41.4621C94.4545 40.4626 96.2352 39.195 97.8064 37.7081C99.8651 42.7329 101 48.2339 101 54Z" fill="white"/>
</svg>
