<svg width="112" height="112" viewBox="0 0 112 112" fill="none" xmlns="http://www.w3.org/2000/svg">
<path d="M76.6585 17.7644C76.6585 14.4486 79.3464 11.7606 82.6622 11.7606C85.978 11.7606 88.666 14.4486 88.666 17.7644V35.5154L104.894 47.0187C106.311 48.0232 106.645 49.9862 105.641 51.4033C104.636 52.8203 102.673 53.1547 101.256 52.1503L62.5011 24.6781C58.3941 21.7669 52.8964 21.7669 48.7895 24.6781L10.0341 52.1503C8.61709 53.1547 6.65407 52.8203 5.64959 51.4033C4.64512 49.9862 4.97956 48.0232 6.39659 47.0187L45.1519 19.5466C51.4379 15.0907 59.8526 15.0907 66.1386 19.5466L76.6585 27.0037V17.7644Z" fill="white"/>
<path d="M17 55.6288C17 54.3388 17.6222 53.1279 18.6709 52.3768L53.1709 27.668C54.5635 26.6707 56.4365 26.6707 57.8291 27.6681L92.3291 52.3768C93.3778 53.1279 94 54.3388 94 55.6288V93C94 97.4183 90.4183 101 86 101H25C20.5817 101 17 97.4183 17 93V55.6288ZM55.5 33.7368L23.29 56.8054V93C23.29 93.9444 24.0556 94.71 25 94.71H86C86.9444 94.71 87.71 93.9444 87.71 93V56.8054L55.5 33.7368Z" fill="white"/>
</svg>
