<svg width="112" height="112" viewBox="0 0 112 112" fill="none" xmlns="http://www.w3.org/2000/svg">
<path d="M91.2517 25.0566L64.6149 9.67784C59.1109 6.50014 52.3298 6.50014 46.8259 9.67784L20.1891 25.0566C14.6851 28.2343 11.2946 34.1069 11.2946 40.4623V71.2199C11.2946 77.5753 14.6851 83.4479 20.189 86.6256L46.8259 102.004C52.3298 105.182 59.1109 105.182 64.6149 102.004L84.8811 90.3037C86.019 89.6467 87.4453 89.7658 88.4585 90.6023C90.1512 91.9999 89.9294 94.6574 88.0283 95.7549L67.7621 107.456C60.3107 111.758 51.1301 111.758 43.6786 107.456L17.0418 92.0768C9.59029 87.7747 5 79.8241 5 71.2199V40.4623C5 31.8581 9.5903 23.9075 17.0418 19.6054L43.6786 4.22658C51.1301 -0.0755317 60.3107 -0.0755255 67.7621 4.22659L94.399 19.6054C101.85 23.9075 106.441 31.8581 106.441 40.4623V79.5011C106.441 81.9141 103.837 83.4295 101.739 82.2377C100.754 81.6785 100.146 80.6334 100.146 79.5011V40.4623C100.146 34.1069 96.7556 28.2343 91.2517 25.0566Z" fill="white"/>
<path fill-rule="evenodd" clip-rule="evenodd" d="M48.741 19.1787C53.0595 16.6854 58.3801 16.6854 62.6985 19.1787L83.981 31.4661C88.2994 33.9593 90.9597 38.5671 90.9597 43.5536V68.1285C90.9597 73.115 88.2994 77.7228 83.981 80.216L62.6985 92.5035C58.3801 94.9967 53.0595 94.9967 48.741 92.5035L27.4586 80.216C23.1401 77.7228 20.4798 73.115 20.4798 68.1285V43.5537C20.4798 38.5671 23.1401 33.9594 27.4586 31.4661L48.741 19.1787ZM50.4844 25.8598C53.5932 24.0872 57.4068 24.0872 60.5156 25.8598L78.8896 36.3362C82.0493 38.1377 84 41.4956 84 45.1328V65.8672C84 69.5045 82.0493 72.8623 78.8896 74.6638L60.5156 85.1402C57.4068 86.9128 53.5932 86.9128 50.4844 85.1402L32.1104 74.6638C28.9507 72.8623 27 69.5045 27 65.8672V45.1328C27 41.4956 28.9507 38.1377 32.1104 36.3362L50.4844 25.8598Z" fill="white"/>
</svg>
