<svg width="112" height="112" viewBox="0 0 112 112" fill="none" xmlns="http://www.w3.org/2000/svg">
<path d="M92.6032 84.1441C92.5048 83.2213 92.7601 82.2988 93.2852 81.5336C98.2694 74.2694 101.186 65.4753 101.186 56C101.186 31.0446 80.9554 10.8142 56 10.8142C31.0446 10.8142 10.8142 31.0446 10.8142 56C10.8142 65.4753 13.7306 74.2694 18.7149 81.5336C19.2399 82.2988 19.4952 83.2213 19.3968 84.1441C19.0616 87.2874 15.2957 88.5164 13.4739 85.933C7.5055 77.4691 4 67.1439 4 56C4 27.2812 27.2812 4 56 4C84.7188 4 108 27.2812 108 56C108 67.1439 104.495 77.4691 98.5261 85.933C96.7044 88.5164 92.9384 87.2874 92.6032 84.1441Z" fill="white"/>
<path d="M56 64.6667C73.8163 64.6667 87.9472 75.8055 89.4509 92.6898C89.6204 94.5935 88.7561 96.4333 87.2288 97.5822C78.533 104.123 67.7192 108 56 108C44.2808 108 33.467 104.123 24.7712 97.5822C23.2439 96.4333 22.3796 94.5935 22.5491 92.6898C24.0528 75.8055 38.1837 64.6667 56 64.6667Z" fill="white"/>
<path d="M56 60.3333C65.5729 60.3333 73.3333 52.5729 73.3333 43C73.3333 33.4271 65.5729 25.6667 56 25.6667C46.4271 25.6667 38.6667 33.4271 38.6667 43C38.6667 52.5729 46.4271 60.3333 56 60.3333Z" fill="white"/>
</svg>
