<svg width="112" height="112" viewBox="0 0 112 112" fill="none" xmlns="http://www.w3.org/2000/svg">
<path fill-rule="evenodd" clip-rule="evenodd" d="M62.4875 38.4313C68.2299 36.0688 72.2737 30.41 72.2737 23.8049C72.2737 15.0761 65.2116 8 56.5 8C47.7884 8 40.7263 15.0761 40.7263 23.8049C40.7263 30.41 44.7701 36.0688 50.5125 38.4314L39.2498 64.3738C38.9268 65.1179 37.9646 65.3151 37.3759 64.7578L20.8719 49.1326C23.0299 47.0084 24.3684 44.0511 24.3684 40.7805C24.3684 34.3147 19.1372 29.0732 12.6842 29.0732C6.2312 29.0732 1 34.3147 1 40.7805C1 47.2463 6.2312 52.4878 12.6842 52.4878C13.1866 52.4878 13.6817 52.456 14.1674 52.3944L20.0605 90.6653C20.4121 92.9489 22.3735 94.6342 24.6795 94.6342H88.3205C90.6265 94.6342 92.5879 92.9489 92.9395 90.6653L98.8326 52.3944C99.3183 52.456 99.8134 52.4878 100.316 52.4878C106.769 52.4878 112 47.2463 112 40.7805C112 34.3147 106.769 29.0732 100.316 29.0732C93.8628 29.0732 88.6316 34.3147 88.6316 40.7805C88.6316 44.0511 89.9701 47.0084 92.1281 49.1326L75.6241 64.7578C75.0355 65.3151 74.0733 65.1179 73.7502 64.3738L62.4875 38.4313ZM56.5 42.2494L45.6784 67.1758C43.4172 72.3845 36.6816 73.7646 32.5611 69.8635L22.4814 60.3205L26.6835 87.6098H86.3166L90.5187 60.3205L80.4389 69.8635C76.3184 73.7645 69.5829 72.3845 67.3216 67.1758L56.5 42.2494Z" fill="white"/>
<path d="M24.3684 96.9756C22.4325 96.9756 20.8632 98.5481 20.8632 100.488C20.8632 102.428 22.4325 104 24.3684 104H88.6316C90.5675 104 92.1368 102.428 92.1368 100.488C92.1368 98.5481 90.5675 96.9756 88.6316 96.9756H24.3684Z" fill="white"/>
</svg>
