<svg width="112" height="112" viewBox="0 0 112 112" fill="none" xmlns="http://www.w3.org/2000/svg">
<path d="M43 33C43 30.2386 45.2386 28 48 28H63C65.7614 28 68 30.2386 68 33C68 35.7614 65.7614 38 63 38H48C45.2386 38 43 35.7614 43 33Z" fill="white"/>
<path d="M48 72C45.2386 72 43 74.2386 43 77C43 79.7614 45.2386 82 48 82H63C65.7614 82 68 79.7614 68 77C68 74.2386 65.7614 72 63 72H48Z" fill="white"/>
<path fill-rule="evenodd" clip-rule="evenodd" d="M8 20.3187C8 14.0675 13.0675 9 19.3187 9H91.6813C97.9324 9 103 14.0675 103 20.3187V90.6813C103 96.9325 97.9324 102 91.6813 102H19.3187C13.0675 102 8 96.9325 8 90.6813V20.3187ZM14 21.7912C14 18.0405 17.0405 15 20.7912 15H90.2088C93.9595 15 97 18.0405 97 21.7912V52H14V21.7912ZM97 58H14V89.2088C14 92.9595 17.0405 96 20.7912 96H90.2088C93.9595 96 97 92.9595 97 89.2088V58Z" fill="white"/>
</svg>
