<svg width="112" height="112" viewBox="0 0 112 112" fill="none" xmlns="http://www.w3.org/2000/svg">
<g filter="url(#filter0_i_4_16550)">
<circle cx="82.1923" cy="21.1923" r="20.1923" fill="url(#paint0_linear_4_16550)"/>
</g>
<circle cx="82.1923" cy="21.1923" r="17.0473" stroke="black" stroke-width="6.29"/>
<circle cx="82.1923" cy="21.1923" r="17.0473" stroke="url(#paint1_linear_4_16550)" stroke-width="6.29"/>
<g filter="url(#filter1_i_4_16550)">
<circle cx="27.0385" cy="40.0385" r="24.0385" fill="url(#paint2_linear_4_16550)"/>
</g>
<circle cx="27.0385" cy="40.0385" r="20.8935" stroke="black" stroke-width="6.29"/>
<circle cx="27.0385" cy="40.0385" r="20.8935" stroke="url(#paint3_linear_4_16550)" stroke-width="6.29"/>
<g filter="url(#filter2_i_4_16550)">
<circle cx="77.7692" cy="79.7692" r="30.7692" fill="url(#paint4_linear_4_16550)"/>
</g>
<circle cx="77.7692" cy="79.7692" r="27.6242" stroke="black" stroke-width="6.29"/>
<circle cx="77.7692" cy="79.7692" r="27.6242" stroke="url(#paint5_linear_4_16550)" stroke-width="6.29"/>
<path fill-rule="evenodd" clip-rule="evenodd" d="M61.2247 11.1191C60.1601 11.0402 59.0847 11 58 11C50.5708 11 43.5816 12.884 37.4842 16.2004C39.7775 17.2121 41.8969 18.5455 43.7853 20.1434C48.1573 18.3057 52.96 17.29 58 17.29C58.4331 17.29 58.8645 17.2975 59.294 17.3124C59.6458 15.1299 60.3045 13.0503 61.2247 11.1191ZM49.1847 96.0956C32.7728 92.6762 19.7931 79.9011 16.0758 63.6005C18.299 64.6314 20.6923 65.3573 23.2022 65.7246C26.8431 76.5348 35.3801 85.0936 46.1765 88.7644C46.8867 91.3488 47.9032 93.8063 49.1847 96.0956ZM100.941 56.2781C100.98 55.5237 101 54.7642 101 54C101 48.2339 99.8651 42.7329 97.8064 37.7081C96.2352 39.195 94.4545 40.4626 92.5131 41.4621C93.6621 44.6241 94.3889 47.9887 94.6254 51.4877C96.9216 52.8295 99.0412 54.4408 100.941 56.2781Z" fill="url(#paint6_linear_4_16550)"/>
<defs>
<filter id="filter0_i_4_16550" x="62" y="1" width="55.7692" height="55.7693" filterUnits="userSpaceOnUse" color-interpolation-filters="sRGB">
<feFlood flood-opacity="0" result="BackgroundImageFix"/>
<feBlend mode="normal" in="SourceGraphic" in2="BackgroundImageFix" result="shape"/>
<feColorMatrix in="SourceAlpha" type="matrix" values="0 0 0 0 0 0 0 0 0 0 0 0 0 0 0 0 0 0 127 0" result="hardAlpha"/>
<feOffset dx="15.3846" dy="15.3846"/>
<feGaussianBlur stdDeviation="15.3846"/>
<feComposite in2="hardAlpha" operator="arithmetic" k2="-1" k3="1"/>
<feColorMatrix type="matrix" values="0 0 0 0 1 0 0 0 0 1 0 0 0 0 1 0 0 0 0.25 0"/>
<feBlend mode="overlay" in2="shape" result="effect1_innerShadow_4_16550"/>
</filter>
<filter id="filter1_i_4_16550" x="3" y="16" width="63.4615" height="63.4615" filterUnits="userSpaceOnUse" color-interpolation-filters="sRGB">
<feFlood flood-opacity="0" result="BackgroundImageFix"/>
<feBlend mode="normal" in="SourceGraphic" in2="BackgroundImageFix" result="shape"/>
<feColorMatrix in="SourceAlpha" type="matrix" values="0 0 0 0 0 0 0 0 0 0 0 0 0 0 0 0 0 0 127 0" result="hardAlpha"/>
<feOffset dx="15.3846" dy="15.3846"/>
<feGaussianBlur stdDeviation="15.3846"/>
<feComposite in2="hardAlpha" operator="arithmetic" k2="-1" k3="1"/>
<feColorMatrix type="matrix" values="0 0 0 0 1 0 0 0 0 1 0 0 0 0 1 0 0 0 0.25 0"/>
<feBlend mode="overlay" in2="shape" result="effect1_innerShadow_4_16550"/>
</filter>
<filter id="filter2_i_4_16550" x="47" y="49" width="76.9231" height="76.9231" filterUnits="userSpaceOnUse" color-interpolation-filters="sRGB">
<feFlood flood-opacity="0" result="BackgroundImageFix"/>
<feBlend mode="normal" in="SourceGraphic" in2="BackgroundImageFix" result="shape"/>
<feColorMatrix in="SourceAlpha" type="matrix" values="0 0 0 0 0 0 0 0 0 0 0 0 0 0 0 0 0 0 127 0" result="hardAlpha"/>
<feOffset dx="15.3846" dy="15.3846"/>
<feGaussianBlur stdDeviation="15.3846"/>
<feComposite in2="hardAlpha" operator="arithmetic" k2="-1" k3="1"/>
<feColorMatrix type="matrix" values="0 0 0 0 1 0 0 0 0 1 0 0 0 0 1 0 0 0 0.25 0"/>
<feBlend mode="overlay" in2="shape" result="effect1_innerShadow_4_16550"/>
</filter>
<linearGradient id="paint0_linear_4_16550" x1="82.1923" y1="1" x2="82.1923" y2="41.3846" gradientUnits="userSpaceOnUse">
<stop stop-color="#1F8472"/>
<stop offset="1" stop-color="#093D33"/>
</linearGradient>
<linearGradient id="paint1_linear_4_16550" x1="82.1923" y1="1" x2="82.1923" y2="41.3846" gradientUnits="userSpaceOnUse">
<stop stop-color="#00FFD1"/>
<stop offset="1" stop-color="#29A891"/>
</linearGradient>
<linearGradient id="paint2_linear_4_16550" x1="27.0385" y1="16" x2="27.0385" y2="64.0769" gradientUnits="userSpaceOnUse">
<stop stop-color="#1F8472"/>
<stop offset="1" stop-color="#093D33"/>
</linearGradient>
<linearGradient id="paint3_linear_4_16550" x1="27.0385" y1="16" x2="27.0385" y2="64.0769" gradientUnits="userSpaceOnUse">
<stop stop-color="#00FFD1"/>
<stop offset="1" stop-color="#29A891"/>
</linearGradient>
<linearGradient id="paint4_linear_4_16550" x1="77.7692" y1="49" x2="77.7692" y2="110.538" gradientUnits="userSpaceOnUse">
<stop stop-color="#1F8472"/>
<stop offset="1" stop-color="#093D33"/>
</linearGradient>
<linearGradient id="paint5_linear_4_16550" x1="77.7692" y1="49" x2="77.7692" y2="110.538" gradientUnits="userSpaceOnUse">
<stop stop-color="#00FFD1"/>
<stop offset="1" stop-color="#29A891"/>
</linearGradient>
<linearGradient id="paint6_linear_4_16550" x1="58.4641" y1="10" x2="58.4641" y2="114.699" gradientUnits="userSpaceOnUse">
<stop stop-color="#25B198"/>
<stop offset="1" stop-color="#166D5E"/>
</linearGradient>
</defs>
</svg>
