<svg width="112" height="112" viewBox="0 0 112 112" fill="none" xmlns="http://www.w3.org/2000/svg">
<path d="M55.002 30.2246C55.2996 30.0114 55.7004 30.0114 55.998 30.2246L90.498 54.9336C90.7222 55.0942 90.8555 55.3532 90.8555 55.6289V93C90.8555 95.6813 88.6813 97.8555 86 97.8555H25C22.3187 97.8555 20.1445 95.6813 20.1445 93V55.6289C20.1445 55.3532 20.2778 55.0942 20.502 54.9336L55.002 30.2246Z" fill="url(#paint0_linear_107_379)" stroke="url(#paint1_linear_107_379)" stroke-width="6.29"/>
<path fill-rule="evenodd" clip-rule="evenodd" d="M82.6622 11.7606C79.3464 11.7606 76.6585 14.4486 76.6585 17.7644V27.0037L66.1386 19.5466C59.8526 15.0907 51.4379 15.0907 45.1519 19.5466L6.39659 47.0187C4.97956 48.0232 4.64512 49.9862 5.64959 51.4033C6.65407 52.8203 8.61709 53.1547 10.0341 52.1503L48.7895 24.6781C52.8964 21.7669 58.3941 21.7669 62.5011 24.6781L101.256 52.1503C102.673 53.1547 104.636 52.8203 105.641 51.4033C106.645 49.9862 106.311 48.0232 104.894 47.0187L88.666 35.5154V17.7644C88.666 14.4486 85.978 11.7606 82.6622 11.7606Z" fill="#3366FF"/>
<path fill-rule="evenodd" clip-rule="evenodd" d="M82.6622 11.7606C79.3464 11.7606 76.6585 14.4486 76.6585 17.7644V27.0037L66.1386 19.5466C59.8526 15.0907 51.4379 15.0907 45.1519 19.5466L6.39659 47.0187C4.97956 48.0232 4.64512 49.9862 5.64959 51.4033C6.65407 52.8203 8.61709 53.1547 10.0341 52.1503L48.7895 24.6781C52.8964 21.7669 58.3941 21.7669 62.5011 24.6781L101.256 52.1503C102.673 53.1547 104.636 52.8203 105.641 51.4033C106.645 49.9862 106.311 48.0232 104.894 47.0187L88.666 35.5154V17.7644C88.666 14.4486 85.978 11.7606 82.6622 11.7606Z" fill="url(#paint2_linear_107_379)"/>
<defs>
<linearGradient id="paint0_linear_107_379" x1="55.5" y1="26" x2="55.5" y2="101" gradientUnits="userSpaceOnUse">
<stop stop-color="#0045AC"/>
<stop offset="1" stop-color="#011A65"/>
</linearGradient>
<linearGradient id="paint1_linear_107_379" x1="55.5" y1="26" x2="55.5" y2="101" gradientUnits="userSpaceOnUse">
<stop stop-color="#66A3FF"/>
<stop offset="1" stop-color="#2B60FF"/>
</linearGradient>
<linearGradient id="paint2_linear_107_379" x1="55.6453" y1="11.7606" x2="55.6453" y2="52.7298" gradientUnits="userSpaceOnUse">
<stop stop-color="#66A3FF"/>
<stop offset="1" stop-color="#2B60FF"/>
</linearGradient>
</defs>
</svg>
