<svg width="112" height="112" viewBox="0 0 112 112" fill="none" xmlns="http://www.w3.org/2000/svg">
<path fill-rule="evenodd" clip-rule="evenodd" d="M64.6149 9.67784L91.2517 25.0566C96.7556 28.2343 100.146 34.1069 100.146 40.4623V79.5011C100.146 80.6334 100.754 81.6785 101.739 82.2377C103.837 83.4295 106.441 81.9141 106.441 79.5011V40.4623C106.441 31.8581 101.85 23.9075 94.399 19.6054L67.7621 4.22659C60.3107 -0.0755256 51.1301 -0.0755318 43.6786 4.22658L17.0418 19.6054C9.5903 23.9075 5 31.8581 5 40.4623V71.2199C5 79.8241 9.59029 87.7747 17.0418 92.0768L43.6786 107.456C51.1301 111.758 60.3107 111.758 67.7621 107.456L88.0283 95.7549C89.9294 94.6574 90.1512 91.9999 88.4585 90.6023C87.4453 89.7658 86.019 89.6467 84.8811 90.3037L64.6149 102.004C59.1109 105.182 52.3298 105.182 46.8259 102.004L20.189 86.6256C14.6851 83.4479 11.2946 77.5753 11.2946 71.2199V40.4623C11.2946 34.1069 14.6851 28.2343 20.1891 25.0566L46.8259 9.67784C52.3298 6.50014 59.1109 6.50014 64.6149 9.67784Z" fill="url(#paint0_linear_4_16547)"/>
<path d="M48.741 19.1787C53.0595 16.6854 58.3801 16.6854 62.6985 19.1787L83.981 31.4661C88.2994 33.9593 90.9597 38.5671 90.9597 43.5536V68.1285C90.9597 73.115 88.2994 77.7228 83.981 80.216L62.6985 92.5034C58.3801 94.9967 53.0595 94.9967 48.741 92.5035L27.4586 80.216C23.1401 77.7228 20.4798 73.115 20.4798 68.1285V43.5537C20.4798 38.5671 23.1401 33.9593 27.4586 31.4661L48.741 19.1787Z" fill="url(#paint1_linear_4_16547)"/>
<path d="M50.4844 25.8598C53.5932 24.0872 57.4068 24.0872 60.5156 25.8598L78.8896 36.3362C82.0493 38.1377 84 41.4955 84 45.1328V65.8672C84 69.5045 82.0493 72.8623 78.8896 74.6638L60.5156 85.1402C57.4068 86.9128 53.5932 86.9128 50.4844 85.1402L32.1104 74.6638C28.9507 72.8623 27 69.5045 27 65.8672V45.1328C27 41.4955 28.9507 38.1377 32.1104 36.3362L50.4844 25.8598Z" fill="url(#paint2_linear_4_16547)"/>
<defs>
<linearGradient id="paint0_linear_4_16547" x1="55.7204" y1="1" x2="55.7204" y2="110.682" gradientUnits="userSpaceOnUse">
<stop stop-color="#FF66AA"/>
<stop offset="1" stop-color="#FF338E"/>
</linearGradient>
<linearGradient id="paint1_linear_4_16547" x1="55.7198" y1="15.1495" x2="55.7198" y2="96.5326" gradientUnits="userSpaceOnUse">
<stop stop-color="#FF66AA"/>
<stop offset="1" stop-color="#FF338E"/>
</linearGradient>
<linearGradient id="paint2_linear_4_16547" x1="55.5" y1="23" x2="55.5" y2="88" gradientUnits="userSpaceOnUse">
<stop stop-color="#4A1B31"/>
<stop offset="1" stop-color="#340D1F"/>
</linearGradient>
</defs>
</svg>
