<svg width="112" height="112" viewBox="0 0 112 112" fill="none" xmlns="http://www.w3.org/2000/svg">
<mask id="path-1-inside-1_4_16546" fill="white">
<path d="M12.4352 41.1745L37.5503 64.9053C38.0541 65.3813 38.8776 65.2129 39.1541 64.5773L56.5 24.7017L73.8459 64.5773C74.1224 65.2129 74.9459 65.3813 75.4497 64.9053L100.565 41.1745L92.8514 91.1679C92.5505 93.1184 90.8718 94.5579 88.8982 94.5579H24.1018C22.1281 94.5579 20.4495 93.1184 20.1485 91.1679L12.4352 41.1745Z"/>
</mask>
<path d="M12.4352 41.1745L37.5503 64.9053C38.0541 65.3813 38.8776 65.2129 39.1541 64.5773L56.5 24.7017L73.8459 64.5773C74.1224 65.2129 74.9459 65.3813 75.4497 64.9053L100.565 41.1745L92.8514 91.1679C92.5505 93.1184 90.8718 94.5579 88.8982 94.5579H24.1018C22.1281 94.5579 20.4495 93.1184 20.1485 91.1679L12.4352 41.1745Z" fill="url(#paint0_linear_4_16546)"/>
<path d="M12.4352 41.1745L16.5559 36.8134L3.83712 24.7956L6.50534 42.0894L12.4352 41.1745ZM100.565 41.1745L106.495 42.0894L109.163 24.7956L96.444 36.8134L100.565 41.1745ZM56.5 24.7017L62.002 22.3083L56.5 9.66006L50.998 22.3083L56.5 24.7017ZM37.5503 64.9053L41.671 60.5442L37.5503 64.9053ZM73.8459 64.5773L68.3439 66.9707L73.8459 64.5773ZM75.4497 64.9053L71.3289 60.5442L75.4497 64.9053ZM20.1485 91.1679L14.2187 92.0828L20.1485 91.1679ZM94.6349 40.2596L86.9216 90.253L98.7812 92.0828L106.495 42.0894L94.6349 40.2596ZM88.8982 88.5579H24.1018V100.558H88.8982V88.5579ZM26.0784 90.253L18.365 40.2596L6.50534 42.0894L14.2187 92.0828L26.0784 90.253ZM50.998 27.095L68.3439 66.9707L79.3479 62.184L62.002 22.3083L50.998 27.095ZM79.5704 69.2664L104.686 45.5356L96.444 36.8134L71.3289 60.5442L79.5704 69.2664ZM8.31443 45.5356L33.4295 69.2664L41.671 60.5442L16.5559 36.8134L8.31443 45.5356ZM44.656 66.9707L62.002 27.095L50.998 22.3083L33.6521 62.184L44.656 66.9707ZM33.4295 69.2664C36.9561 72.5986 42.7207 71.4198 44.656 66.9707L33.6521 62.184C35.0345 59.0061 39.1521 58.164 41.671 60.5442L33.4295 69.2664ZM68.3439 66.9707C70.2792 71.4197 76.0439 72.5986 79.5704 69.2664L71.3289 60.5442C73.8479 58.164 77.9655 59.0061 79.3479 62.184L68.3439 66.9707ZM24.1018 88.5579C25.0886 88.5579 25.9279 89.2777 26.0784 90.253L14.2187 92.0828C14.9711 96.9591 19.1677 100.558 24.1018 100.558V88.5579ZM86.9216 90.253C87.0721 89.2777 87.9114 88.5579 88.8982 88.5579V100.558C93.8323 100.558 98.0289 96.9591 98.7812 92.0828L86.9216 90.253Z" fill="url(#paint1_linear_4_16546)" mask="url(#path-1-inside-1_4_16546)"/>
<circle cx="12.5" cy="40.5" r="11.5" fill="url(#paint2_linear_4_16546)"/>
<ellipse cx="56.5" cy="24" rx="15.5" ry="16" fill="url(#paint3_linear_4_16546)"/>
<circle cx="100.5" cy="40.5" r="11.5" fill="url(#paint4_linear_4_16546)"/>
<rect x="21" y="97" width="71" height="7" rx="3.5" fill="url(#paint5_linear_4_16546)"/>
<defs>
<linearGradient id="paint0_linear_4_16546" x1="56.5" y1="24.7017" x2="56.5" y2="94.5579" gradientUnits="userSpaceOnUse">
<stop stop-color="#265E67"/>
<stop offset="1" stop-color="#1D535B"/>
</linearGradient>
<linearGradient id="paint1_linear_4_16546" x1="56.5" y1="24.7017" x2="56.5" y2="94.5579" gradientUnits="userSpaceOnUse">
<stop stop-color="#54E8FF"/>
<stop offset="1" stop-color="#00C2E0"/>
</linearGradient>
<linearGradient id="paint2_linear_4_16546" x1="12.5" y1="29" x2="12.5" y2="52" gradientUnits="userSpaceOnUse">
<stop stop-color="#54E8FF"/>
<stop offset="1" stop-color="#00C2E0"/>
</linearGradient>
<linearGradient id="paint3_linear_4_16546" x1="56.5" y1="8" x2="56.5" y2="40" gradientUnits="userSpaceOnUse">
<stop stop-color="#54E8FF"/>
<stop offset="1" stop-color="#00C2E0"/>
</linearGradient>
<linearGradient id="paint4_linear_4_16546" x1="100.5" y1="29" x2="100.5" y2="52" gradientUnits="userSpaceOnUse">
<stop stop-color="#54E8FF"/>
<stop offset="1" stop-color="#00C2E0"/>
</linearGradient>
<linearGradient id="paint5_linear_4_16546" x1="56.5" y1="97" x2="56.5" y2="104" gradientUnits="userSpaceOnUse">
<stop stop-color="#54E8FF"/>
<stop offset="1" stop-color="#00C2E0"/>
</linearGradient>
</defs>
</svg>
