<svg width="112" height="112" viewBox="0 0 112 112" fill="none" xmlns="http://www.w3.org/2000/svg">
<path d="M8 20.3187C8 14.0675 13.0675 9 19.3187 9H91.6813C97.9324 9 103 14.0675 103 20.3187V90.6813C103 96.9325 97.9324 102 91.6813 102H19.3187C13.0675 102 8 96.9325 8 90.6813V20.3187Z" fill="url(#paint0_linear_4_16548)"/>
<path d="M14 21.7912C14 18.0405 17.0405 15 20.7912 15H90.2088C93.9595 15 97 18.0405 97 21.7912V52H14V21.7912Z" fill="url(#paint1_linear_4_16548)"/>
<rect x="43" y="28" width="25" height="10" rx="5" fill="url(#paint2_linear_4_16548)"/>
<path d="M14 58H97V89.2088C97 92.9595 93.9595 96 90.2088 96H20.7912C17.0405 96 14 92.9595 14 89.2088V58Z" fill="url(#paint3_linear_4_16548)"/>
<path d="M43 77C43 74.2386 45.2386 72 48 72H63C65.7614 72 68 74.2386 68 77C68 79.7614 65.7614 82 63 82H48C45.2386 82 43 79.7614 43 77Z" fill="url(#paint4_linear_4_16548)"/>
<defs>
<linearGradient id="paint0_linear_4_16548" x1="55.5" y1="9" x2="55.5" y2="77.0164" gradientUnits="userSpaceOnUse">
<stop stop-color="#F7A427"/>
<stop offset="1" stop-color="#F5603F"/>
</linearGradient>
<linearGradient id="paint1_linear_4_16548" x1="55.5" y1="15" x2="55.5" y2="52" gradientUnits="userSpaceOnUse">
<stop stop-color="#581E05"/>
<stop offset="1" stop-color="#462E11"/>
</linearGradient>
<linearGradient id="paint2_linear_4_16548" x1="43" y1="28.7143" x2="68" y2="37.2857" gradientUnits="userSpaceOnUse">
<stop stop-color="#F7A427"/>
<stop offset="1" stop-color="#F5603F"/>
</linearGradient>
<linearGradient id="paint3_linear_4_16548" x1="55.5" y1="58" x2="55.5" y2="96" gradientUnits="userSpaceOnUse">
<stop stop-color="#581E05"/>
<stop offset="1" stop-color="#462E11"/>
</linearGradient>
<linearGradient id="paint4_linear_4_16548" x1="43" y1="72.7143" x2="68" y2="81.2857" gradientUnits="userSpaceOnUse">
<stop stop-color="#F7A427"/>
<stop offset="1" stop-color="#F5603F"/>
</linearGradient>
</defs>
</svg>
